<svg width="640" height="800" viewBox="0 0 640 800" fill="none" xmlns="http://www.w3.org/2000/svg">
  <rect width="640" height="800" rx="28" fill="url(#bg)"/>
  <circle cx="520" cy="120" r="110" fill="#FDE68A" fill-opacity="0.35"/>
  <circle cx="120" cy="700" r="140" fill="#BFDBFE" fill-opacity="0.35"/>
  <rect x="124" y="134" width="392" height="532" rx="20" fill="#FFFFFF" fill-opacity="0.92"/>
  <rect x="154" y="178" width="332" height="226" rx="14" fill="url(#cover)"/>
  <path d="M230 352H410V370H230V352Z" fill="#93C5FD"/>
  <path d="M190 430H450V444H190V430Z" fill="#CBD5E1"/>
  <path d="M190 460H450V474H190V460Z" fill="#E2E8F0"/>
  <path d="M190 490H380V504H190V490Z" fill="#E2E8F0"/>
  <path d="M282 232C282 211.013 299.013 194 320 194C340.987 194 358 211.013 358 232V246H370C376.627 246 382 251.373 382 258V320C382 326.627 376.627 332 370 332H270C263.373 332 258 326.627 258 320V258C258 251.373 263.373 246 270 246H282V232Z" fill="#0EA5E9" fill-opacity="0.9"/>
  <path d="M320 220C313.373 220 308 225.373 308 232V246H332V232C332 225.373 326.627 220 320 220Z" fill="white"/>
  <text x="320" y="564" text-anchor="middle" fill="#64748B" font-family="Plus Jakarta Sans, Arial, sans-serif" font-size="36" font-weight="700">KATALOG BUKU</text>
  <defs>
    <linearGradient id="bg" x1="0" y1="0" x2="640" y2="800" gradientUnits="userSpaceOnUse">
      <stop stop-color="#FFF7ED"/>
      <stop offset="0.45" stop-color="#FDF2F8"/>
      <stop offset="1" stop-color="#EFF6FF"/>
    </linearGradient>
    <linearGradient id="cover" x1="154" y1="178" x2="486" y2="404" gradientUnits="userSpaceOnUse">
      <stop stop-color="#FBCFE8"/>
      <stop offset="1" stop-color="#BAE6FD"/>
    </linearGradient>
  </defs>
</svg>
