<svg width="640" height="640" viewBox="0 0 640 640" fill="none" xmlns="http://www.w3.org/2000/svg">
  <rect width="640" height="640" rx="28" fill="#ffffff"/>
  <rect x="1" y="1" width="638" height="638" rx="27" stroke="#E2E8F0" stroke-width="2"/>
  <rect x="34" y="34" width="572" height="572" rx="18" fill="#F8FAFC"/>
  <rect x="70" y="70" width="130" height="130" rx="12" fill="#0F172A"/>
  <rect x="88" y="88" width="94" height="94" rx="8" fill="#ffffff"/>
  <rect x="104" y="104" width="62" height="62" rx="6" fill="#0F172A"/>
  <rect x="440" y="70" width="130" height="130" rx="12" fill="#0F172A"/>
  <rect x="458" y="88" width="94" height="94" rx="8" fill="#ffffff"/>
  <rect x="474" y="104" width="62" height="62" rx="6" fill="#0F172A"/>
  <rect x="70" y="440" width="130" height="130" rx="12" fill="#0F172A"/>
  <rect x="88" y="458" width="94" height="94" rx="8" fill="#ffffff"/>
  <rect x="104" y="474" width="62" height="62" rx="6" fill="#0F172A"/>
  <rect x="250" y="250" width="20" height="20" fill="#0F172A"/>
  <rect x="280" y="250" width="20" height="20" fill="#0F172A"/>
  <rect x="310" y="250" width="20" height="20" fill="#0F172A"/>
  <rect x="370" y="250" width="20" height="20" fill="#0F172A"/>
  <rect x="400" y="250" width="20" height="20" fill="#0F172A"/>
  <rect x="250" y="280" width="20" height="20" fill="#0F172A"/>
  <rect x="310" y="280" width="20" height="20" fill="#0F172A"/>
  <rect x="340" y="280" width="20" height="20" fill="#0F172A"/>
  <rect x="400" y="280" width="20" height="20" fill="#0F172A"/>
  <rect x="430" y="280" width="20" height="20" fill="#0F172A"/>
  <rect x="250" y="310" width="20" height="20" fill="#0F172A"/>
  <rect x="280" y="310" width="20" height="20" fill="#0F172A"/>
  <rect x="340" y="310" width="20" height="20" fill="#0F172A"/>
  <rect x="370" y="310" width="20" height="20" fill="#0F172A"/>
  <rect x="430" y="310" width="20" height="20" fill="#0F172A"/>
  <rect x="250" y="340" width="20" height="20" fill="#0F172A"/>
  <rect x="310" y="340" width="20" height="20" fill="#0F172A"/>
  <rect x="400" y="340" width="20" height="20" fill="#0F172A"/>
  <rect x="430" y="340" width="20" height="20" fill="#0F172A"/>
  <rect x="250" y="370" width="20" height="20" fill="#0F172A"/>
  <rect x="280" y="370" width="20" height="20" fill="#0F172A"/>
  <rect x="340" y="370" width="20" height="20" fill="#0F172A"/>
  <rect x="370" y="370" width="20" height="20" fill="#0F172A"/>
  <rect x="430" y="370" width="20" height="20" fill="#0F172A"/>
  <rect x="250" y="400" width="20" height="20" fill="#0F172A"/>
  <rect x="310" y="400" width="20" height="20" fill="#0F172A"/>
  <rect x="340" y="400" width="20" height="20" fill="#0F172A"/>
  <rect x="400" y="400" width="20" height="20" fill="#0F172A"/>
  <rect x="430" y="400" width="20" height="20" fill="#0F172A"/>
  <text x="320" y="612" text-anchor="middle" fill="#0F172A" font-family="Arial, sans-serif" font-size="30" font-weight="700">QRIS ALL PAYMENT</text>
</svg>
